<svg width="24" height="24" viewBox="0 0 24 24" fill="none" xmlns="http://www.w3.org/2000/svg">
<rect width="24" height="24" rx="2.8" fill="black"/>
<path d="M18 12V16.25C18 17.6584 15.3137 18.8 12 18.8C8.68629 18.8 6 17.6584 6 16.25V12M18 12V7.75001M18 12C18 13.4084 15.3137 14.55 12 14.55C8.68629 14.55 6 13.4084 6 12M6 12V7.75001M18 7.75001C18 6.34169 15.3137 5.20001 12 5.20001C8.68629 5.20001 6 6.34169 6 7.75001M18 7.75001C18 9.15833 15.3137 10.3 12 10.3C8.68629 10.3 6 9.15833 6 7.75001" stroke="white" stroke-width="1.7" stroke-linecap="round" stroke-linejoin="round"/>
</svg>
