<svg width="22" height="22" viewBox="0 0 22 22" fill="none" xmlns="http://www.w3.org/2000/svg">
<g clip-path="url(#clip0_7_74)">
<path d="M12.2211 0.254959C13.4017 0.269504 14.2387 0.333755 14.7778 0.393631C15.0232 0.420899 15.207 0.447379 15.3334 0.46785L14.894 3.25301C14.8927 3.25272 14.8913 3.25231 14.8901 3.25203C14.7334 3.21606 14.516 3.17002 14.2748 3.12801C13.8048 3.04612 13.2 2.97242 12.7807 3.05281C12.3706 3.1316 12.0163 3.30498 11.7709 3.64265C11.53 3.97419 11.4184 4.43134 11.4184 5.0284V7.17976H14.8217L14.5073 9.77254H11.4184V20.8184H7.82367V9.77254H5.70648V7.17976H7.82367V4.62898C7.82367 3.46079 7.74354 2.98801 8.19476 2.16512C8.6384 1.35671 9.92981 0.227856 12.2211 0.254959Z" fill="white" stroke="black" stroke-width="0.468293"/>
</g>
<defs>
<clipPath id="clip0_7_74">
<rect width="21.0732" height="21.0732" fill="white"/>
</clipPath>
</defs>
</svg>
