<svg width="26" height="26" viewBox="0 0 26 26" fill="none" xmlns="http://www.w3.org/2000/svg">
<path d="M12.8785 6.6734C16.3051 6.67363 19.0826 9.45176 19.0826 12.8785C19.0823 16.305 16.305 19.0823 12.8785 19.0826C9.45176 19.0826 6.67363 16.3051 6.6734 12.8785C6.6734 9.45162 9.45162 6.6734 12.8785 6.6734ZM12.8785 8.35114C10.3784 8.35114 8.35114 10.3784 8.35114 12.8785C8.35137 15.3783 10.3785 17.4048 12.8785 17.4048C15.3782 17.4046 17.4046 15.3782 17.4048 12.8785C17.4048 10.3785 15.3783 8.35137 12.8785 8.35114Z" fill="white" stroke="black" stroke-width="0.468293"/>
<path d="M19.3171 5.60023C19.7805 5.60027 20.156 5.97575 20.156 6.4391C20.156 6.90242 19.7805 7.27793 19.3171 7.27797C18.8538 7.27797 18.4783 6.90245 18.4783 6.4391C18.4783 5.97572 18.8537 5.60023 19.3171 5.60023Z" fill="white" stroke="black" stroke-width="0.468293"/>
<path d="M11.3759 1.30756H14.3808C16.1876 1.30756 17.5288 1.30771 18.5908 1.39447C19.6497 1.481 20.4105 1.6522 21.0605 1.98334C22.155 2.541 23.0585 3.41008 23.6572 4.47845L23.7724 4.69525C24.1037 5.34543 24.2757 6.10671 24.3622 7.16595C24.449 8.22786 24.4492 9.5692 24.4492 11.3759V14.3808C24.4492 16.1876 24.449 17.5288 24.3622 18.5908C24.2757 19.6498 24.1036 20.4104 23.7724 21.0605C23.1776 22.228 22.228 23.1776 21.0605 23.7724C20.4104 24.1036 19.6498 24.2757 18.5908 24.3622C17.5288 24.449 16.1876 24.4492 14.3808 24.4492H11.3759C9.5692 24.4492 8.22786 24.449 7.16595 24.3622C6.23901 24.2865 5.54001 24.1456 4.94427 23.8896L4.69525 23.7724C3.52774 23.1776 2.57822 22.228 1.98334 21.0605C1.6522 20.4105 1.481 19.6497 1.39447 18.5908C1.30771 17.5288 1.30756 16.1876 1.30756 14.3808V11.3759C1.30756 9.56918 1.30773 8.22787 1.39447 7.16595C1.48101 6.10677 1.65209 5.34541 1.98334 4.69525C2.57822 3.52772 3.52772 2.57822 4.69525 1.98334C5.34541 1.65209 6.10677 1.48101 7.16595 1.39447C8.22787 1.30773 9.56918 1.30756 11.3759 1.30756ZM11.3759 2.98529C9.54168 2.98529 8.28041 2.9865 7.30267 3.06635C6.34735 3.1444 5.83123 3.28777 5.45697 3.47845C4.60519 3.91246 3.91246 4.60519 3.47845 5.45697C3.28777 5.83123 3.1444 6.34735 3.06635 7.30267C2.9865 8.28041 2.98529 9.54168 2.98529 11.3759V14.3808C2.98529 16.2152 2.98647 17.4763 3.06635 18.454C3.14438 19.4091 3.28786 19.9246 3.47845 20.2988C3.91245 21.1505 4.60524 21.8433 5.45697 22.2773C5.83123 22.468 6.34729 22.6114 7.30267 22.6894C8.28041 22.7692 9.54165 22.7704 11.3759 22.7704H14.3808C16.2152 22.7704 17.4763 22.7692 18.454 22.6894C19.4092 22.6114 19.9245 22.4679 20.2988 22.2773C21.1505 21.8433 21.8433 21.1505 22.2773 20.2988C22.4679 19.9245 22.6114 19.4092 22.6894 18.454C22.7692 17.4763 22.7704 16.2152 22.7704 14.3808V11.3759C22.7704 9.54165 22.7692 8.28041 22.6894 7.30267C22.6114 6.34729 22.468 5.83123 22.2773 5.45697C21.8433 4.60524 21.1505 3.91245 20.2988 3.47845C19.9246 3.28786 19.4091 3.14438 18.454 3.06635C17.4763 2.98647 16.2152 2.98529 14.3808 2.98529H11.3759Z" fill="white" stroke="black" stroke-width="0.468293"/>
</svg>
