<svg width="24" height="24" viewBox="0 0 24 24" fill="none" xmlns="http://www.w3.org/2000/svg">
<rect width="23.7949" height="23.7949" rx="2.77607" fill="black"/>
<path d="M6.37148 10.0317H17.0268C17.2071 10.0318 17.3499 10.1758 17.35 10.353V16.7504C17.35 17.5195 16.7793 18.0797 15.641 18.4614C14.5225 18.8364 13.0491 18.9604 11.6996 18.9604C10.3502 18.9604 8.87681 18.8363 7.7582 18.4614C6.61971 18.0797 6.04827 17.5196 6.04824 16.7504C6.04814 14.7549 6.0482 11.778 6.04824 10.353C6.04834 10.1759 6.19121 10.0318 6.37148 10.0317ZM11.7875 12.3178C10.7862 12.3178 9.97402 13.13 9.97402 14.1313C9.97405 14.5825 10.1411 14.994 10.4135 15.311V16.3852C10.4135 17.1115 11.0024 17.7006 11.7289 17.7006H11.8451C12.5716 17.7006 13.1605 17.1115 13.1605 16.3852V15.311C13.4329 14.994 13.6 14.5824 13.6 14.1313C13.6 13.1302 12.7885 12.3181 11.7875 12.3178Z" fill="black" stroke="white" stroke-width="0.991454"/>
<path d="M8.50271 9.53911V7.68752C8.50271 6.58722 9.06863 5.56426 10.0008 4.97964C10.9964 4.35516 12.2545 4.32746 13.2767 4.90751L13.3597 4.95461C14.4103 5.55081 15.0595 6.66564 15.0595 7.87367V9.53911" stroke="white" stroke-width="1.58633" stroke-linecap="round" stroke-linejoin="round"/>
</svg>
