<svg width="24" height="24" viewBox="0 0 24 24" fill="none" xmlns="http://www.w3.org/2000/svg">
<path d="M24 21.3333C24 22.0406 23.719 22.7189 23.219 23.219C22.7189 23.719 22.0406 24 21.3333 24H2.66667C1.95942 24 1.28115 23.719 0.781049 23.219C0.280952 22.7189 0 22.0406 0 21.3333V2.66667C0 1.95942 0.280952 1.28115 0.781049 0.781049C1.28115 0.280952 1.95942 0 2.66667 0L21.3333 0C22.0406 0 22.7189 0.280952 23.219 0.781049C23.719 1.28115 24 1.95942 24 2.66667V21.3333Z" fill="black"/>
<path d="M6.74593 8.84105C6.74593 9.32481 6.42342 9.75896 5.91485 9.75896C5.40627 9.75896 5.00934 9.38683 4.26446 9.38683C3.73108 9.38683 3.2467 9.67213 3.2467 10.1931C3.2467 11.4707 7.39095 10.6521 7.39095 13.853C7.39095 15.6274 5.92663 16.732 4.21485 16.732C3.2591 16.732 1.2 16.5087 1.2 15.3427C1.2 14.859 1.52313 14.4614 2.03108 14.4614C2.61408 14.4614 3.30934 14.9452 4.11561 14.9452C4.93429 14.9452 5.38146 14.4862 5.38146 13.8778C5.38146 12.4141 1.23721 13.2948 1.23721 10.4164C1.23721 8.67917 2.66432 7.60001 4.31408 7.60001C5.00934 7.60001 6.74593 7.86049 6.74593 8.84105ZM7.58818 12.166C7.58818 9.5853 9.32539 7.60001 11.8565 7.60001C14.3497 7.60001 16.1241 9.6467 16.1241 12.166C16.1241 14.7343 14.4 16.7314 11.8565 16.7314C9.33779 16.7314 7.58818 14.7343 7.58818 12.166ZM14.1891 12.166C14.1891 10.6645 13.407 9.31179 11.8565 9.31179C10.3053 9.31179 9.52385 10.6645 9.52385 12.166C9.52385 13.6793 10.2805 15.0196 11.8565 15.0196C13.4324 15.019 14.1891 13.6793 14.1891 12.166ZM21.8673 8.84105C21.8673 9.32481 21.5442 9.75896 21.035 9.75896C20.5258 9.75896 20.1301 9.38683 19.3852 9.38683C18.8525 9.38683 18.3674 9.67213 18.3674 10.1931C18.3674 11.4707 22.5117 10.6521 22.5117 13.853C22.5117 15.6274 21.0486 16.732 19.3356 16.732C18.3811 16.732 16.3207 16.5087 16.3207 15.3427C16.3207 14.859 16.6439 14.4614 17.1531 14.4614C17.7354 14.4614 18.4313 14.9452 19.2364 14.9452C20.055 14.9452 20.5022 14.4862 20.5022 13.8778C20.5022 12.4141 16.358 13.2948 16.358 10.4164C16.358 8.67917 17.7851 7.60001 19.4348 7.60001C20.1301 7.60001 21.8673 7.86049 21.8673 8.84105Z" fill="white"/>
</svg>
