<svg width="32" height="32" viewBox="0 0 32 32" fill="none" xmlns="http://www.w3.org/2000/svg">
<path d="M15.6094 2.18559C23.0234 2.18559 29.034 8.19549 29.0342 15.6094C29.0342 23.0235 23.0235 29.0342 15.6094 29.0342C13.1848 29.0342 10.9081 28.3899 8.94336 27.2637L8.85547 27.2139L8.75977 27.2432L2.90625 28.9893C2.50995 29.1076 2.08103 28.9864 1.80566 28.6778C1.53025 28.3691 1.4585 27.9284 1.62109 27.5479L3.86328 22.3008L3.9082 22.1954L3.85352 22.0948C2.79062 20.1716 2.18555 17.9598 2.18555 15.6094C2.18573 8.19561 8.19559 2.18578 15.6094 2.18559ZM15.6094 4.31841C9.3738 4.31859 4.31854 9.37381 4.31836 15.6094C4.31836 17.7927 4.93777 19.8288 6.00879 21.5547C6.19195 21.8501 6.21962 22.2165 6.08301 22.5362L4.67285 25.836L4.47656 26.295L4.95508 26.1524L8.7002 25.0342C8.95885 24.9571 9.23581 24.9809 9.47559 25.0987L9.57617 25.1553C11.3208 26.2607 13.3887 26.9004 15.6094 26.9004C21.8452 26.9004 26.9004 21.8453 26.9004 15.6094C26.9002 9.3737 21.8451 4.31841 15.6094 4.31841ZM10.3555 9.60258C10.6006 9.38872 10.9301 9.29859 11.25 9.35747C11.57 9.41641 11.8462 9.61805 11.999 9.90532L13.3828 12.5069C13.6183 12.9495 13.5139 13.4968 13.1318 13.8213L12.0449 14.7432L11.8965 14.8702L11.9941 15.0391C12.5077 15.9287 13.2035 16.8988 14.1426 17.8379C15.0461 18.7415 15.9488 19.3907 16.7666 19.8565L16.8955 19.9297L17.0176 19.8438L18.7266 18.6397C19.0707 18.3975 19.5252 18.3805 19.8867 18.5957L22.0703 19.8965C22.3693 20.0748 22.5624 20.3882 22.5879 20.7354C22.6131 21.0824 22.4678 21.42 22.1982 21.6397L21.4287 22.2666C20.7188 22.8451 19.7249 23.2013 18.6846 22.9336C17.3148 22.5809 14.9584 21.6694 12.6348 19.3457C10.4741 17.185 9.41917 14.8816 8.92578 13.42C8.47823 12.094 9.0147 10.7732 9.94531 9.96098L10.3555 9.60258Z" fill="white" stroke="black" stroke-width="0.468293"/>
</svg>
